<mxfile host="app.diagrams.net" modified="2023-08-20T15:58:23.582Z" agent="Mozilla/5.0 (Windows NT 10.0; Win64; x64) AppleWebKit/537.36 (KHTML, like Gecko) Chrome/111.0.0.0 Safari/537.36" etag="D2lF5OcyNEK-JhVkHQDt" version="21.6.8" type="google">
  <diagram name="Page-1" id="FO1PxF98T1ZGTG8aZyOI">
    <mxGraphModel grid="1" page="1" gridSize="10" guides="1" tooltips="1" connect="1" arrows="1" fold="1" pageScale="1" pageWidth="827" pageHeight="1169" math="0" shadow="0">
      <root>
        <mxCell id="0" />
        <mxCell id="1" parent="0" />
        <mxCell id="gg4HVY9TAaVVfvh8KX-W-1" value="Registrirani&lt;br&gt;&amp;nbsp;korisnik" style="shape=umlActor;verticalLabelPosition=bottom;verticalAlign=top;html=1;outlineConnect=0;" vertex="1" parent="1">
          <mxGeometry x="50" y="398" width="30" height="60" as="geometry" />
        </mxCell>
        <mxCell id="gg4HVY9TAaVVfvh8KX-W-28" value="&amp;lt;&amp;lt;include&amp;gt;&amp;gt;" style="text;html=1;align=center;verticalAlign=middle;resizable=0;points=[];autosize=1;strokeColor=none;fillColor=none;" vertex="1" parent="1">
          <mxGeometry x="290" y="90" width="90" height="30" as="geometry" />
        </mxCell>
        <mxCell id="gg4HVY9TAaVVfvh8KX-W-41" value="" style="endArrow=none;html=1;rounded=0;entryX=0;entryY=0;entryDx=0;entryDy=0;exitX=0.5;exitY=0.5;exitDx=0;exitDy=0;exitPerimeter=0;" edge="1" parent="1" source="gg4HVY9TAaVVfvh8KX-W-1" target="gg4HVY9TAaVVfvh8KX-W-40">
          <mxGeometry width="50" height="50" relative="1" as="geometry">
            <mxPoint x="390" y="320" as="sourcePoint" />
            <mxPoint x="440" y="270" as="targetPoint" />
          </mxGeometry>
        </mxCell>
        <mxCell id="gg4HVY9TAaVVfvh8KX-W-55" value="" style="endArrow=none;html=1;rounded=0;exitX=1;exitY=1;exitDx=0;exitDy=0;exitPerimeter=0;entryX=0.292;entryY=0.025;entryDx=0;entryDy=0;entryPerimeter=0;" edge="1" parent="1" source="gg4HVY9TAaVVfvh8KX-W-1" target="gg4HVY9TAaVVfvh8KX-W-56">
          <mxGeometry width="50" height="50" relative="1" as="geometry">
            <mxPoint x="390" y="420" as="sourcePoint" />
            <mxPoint x="180" y="640" as="targetPoint" />
            <Array as="points" />
          </mxGeometry>
        </mxCell>
        <mxCell id="gg4HVY9TAaVVfvh8KX-W-60" value="" style="endArrow=none;html=1;rounded=0;exitX=1;exitY=0.5;exitDx=0;exitDy=0;entryX=0.5;entryY=0.5;entryDx=0;entryDy=0;entryPerimeter=0;" edge="1" parent="1" source="gg4HVY9TAaVVfvh8KX-W-59" target="gg4HVY9TAaVVfvh8KX-W-61">
          <mxGeometry width="50" height="50" relative="1" as="geometry">
            <mxPoint x="390" y="320" as="sourcePoint" />
            <mxPoint x="1050" y="80" as="targetPoint" />
          </mxGeometry>
        </mxCell>
        <mxCell id="gg4HVY9TAaVVfvh8KX-W-61" value="Banka" style="shape=umlActor;verticalLabelPosition=bottom;verticalAlign=top;html=1;outlineConnect=0;" vertex="1" parent="1">
          <mxGeometry x="1100" y="-70" width="30" height="60" as="geometry" />
        </mxCell>
        <mxCell id="gg4HVY9TAaVVfvh8KX-W-72" value="Administrator" style="shape=umlActor;verticalLabelPosition=bottom;verticalAlign=top;html=1;outlineConnect=0;" vertex="1" parent="1">
          <mxGeometry x="1130" y="495" width="30" height="60" as="geometry" />
        </mxCell>
        <mxCell id="gg4HVY9TAaVVfvh8KX-W-82" value="" style="endArrow=none;html=1;rounded=0;exitX=0.5;exitY=0;exitDx=0;exitDy=0;exitPerimeter=0;entryX=1;entryY=1;entryDx=0;entryDy=0;" edge="1" parent="1" source="gg4HVY9TAaVVfvh8KX-W-72" target="gg4HVY9TAaVVfvh8KX-W-74">
          <mxGeometry width="50" height="50" relative="1" as="geometry">
            <mxPoint x="850" y="520" as="sourcePoint" />
            <mxPoint x="900" y="470" as="targetPoint" />
          </mxGeometry>
        </mxCell>
        <mxCell id="gg4HVY9TAaVVfvh8KX-W-95" value="" style="endArrow=none;html=1;rounded=0;exitX=1;exitY=0.5;exitDx=0;exitDy=0;entryX=0.5;entryY=0.5;entryDx=0;entryDy=0;entryPerimeter=0;" edge="1" parent="1" source="gg4HVY9TAaVVfvh8KX-W-94" target="gg4HVY9TAaVVfvh8KX-W-72">
          <mxGeometry width="50" height="50" relative="1" as="geometry">
            <mxPoint x="670" y="630" as="sourcePoint" />
            <mxPoint x="1010" y="530" as="targetPoint" />
          </mxGeometry>
        </mxCell>
        <mxCell id="gg4HVY9TAaVVfvh8KX-W-110" value="Online Videoteka" style="swimlane;whiteSpace=wrap;html=1;strokeColor=#006EAF;fillColor=#1ba1e2;fontColor=#ffffff;" vertex="1" parent="1">
          <mxGeometry x="160" y="-110" width="880" height="1190" as="geometry" />
        </mxCell>
        <mxCell id="gg4HVY9TAaVVfvh8KX-W-77" value="Nadogradnja sustava" style="ellipse;whiteSpace=wrap;html=1;" vertex="1" parent="gg4HVY9TAaVVfvh8KX-W-110">
          <mxGeometry x="560" y="440" width="120" height="70" as="geometry" />
        </mxCell>
        <mxCell id="gg4HVY9TAaVVfvh8KX-W-94" value="Upravljanje korisnicima" style="ellipse;whiteSpace=wrap;html=1;" vertex="1" parent="gg4HVY9TAaVVfvh8KX-W-110">
          <mxGeometry x="560" y="540" width="120" height="80" as="geometry" />
        </mxCell>
        <mxCell id="0nW2uWBSh4pnIqIu4Ily-17" value="Upravljanje recenzijama" style="ellipse;whiteSpace=wrap;html=1;" vertex="1" parent="gg4HVY9TAaVVfvh8KX-W-110">
          <mxGeometry x="560" y="640" width="120" height="80" as="geometry" />
        </mxCell>
        <mxCell id="gg4HVY9TAaVVfvh8KX-W-83" value="Upravljanje sadržajem" style="ellipse;whiteSpace=wrap;html=1;" vertex="1" parent="gg4HVY9TAaVVfvh8KX-W-110">
          <mxGeometry x="560" y="335" width="120" height="80" as="geometry" />
        </mxCell>
        <mxCell id="gg4HVY9TAaVVfvh8KX-W-74" value="Upravljanje sustavom" style="ellipse;whiteSpace=wrap;html=1;" vertex="1" parent="gg4HVY9TAaVVfvh8KX-W-110">
          <mxGeometry x="560" y="220" width="120" height="80" as="geometry" />
        </mxCell>
        <mxCell id="0nW2uWBSh4pnIqIu4Ily-19" value="Upravljanje komentarima" style="ellipse;whiteSpace=wrap;html=1;" vertex="1" parent="gg4HVY9TAaVVfvh8KX-W-110">
          <mxGeometry x="560" y="760" width="120" height="80" as="geometry" />
        </mxCell>
        <mxCell id="0nW2uWBSh4pnIqIu4Ily-23" value="Pregled izvještaja" style="ellipse;whiteSpace=wrap;html=1;" vertex="1" parent="gg4HVY9TAaVVfvh8KX-W-110">
          <mxGeometry x="550" y="960" width="120" height="80" as="geometry" />
        </mxCell>
        <mxCell id="0nW2uWBSh4pnIqIu4Ily-29" value="&amp;lt;&amp;lt;extend&amp;gt;&amp;gt;" style="text;html=1;align=center;verticalAlign=middle;resizable=0;points=[];autosize=1;strokeColor=none;fillColor=none;" vertex="1" parent="gg4HVY9TAaVVfvh8KX-W-110">
          <mxGeometry x="70" y="120" width="90" height="30" as="geometry" />
        </mxCell>
        <mxCell id="gg4HVY9TAaVVfvh8KX-W-24" value="Prijava" style="ellipse;whiteSpace=wrap;html=1;" vertex="1" parent="gg4HVY9TAaVVfvh8KX-W-110">
          <mxGeometry x="20" y="180" width="120" height="80" as="geometry" />
        </mxCell>
        <mxCell id="gg4HVY9TAaVVfvh8KX-W-51" value="&amp;lt;&amp;lt;extend&amp;gt;&amp;gt;" style="text;html=1;align=center;verticalAlign=middle;resizable=0;points=[];autosize=1;strokeColor=none;fillColor=none;" vertex="1" parent="gg4HVY9TAaVVfvh8KX-W-110">
          <mxGeometry x="180" y="300" width="90" height="30" as="geometry" />
        </mxCell>
        <mxCell id="0nW2uWBSh4pnIqIu4Ily-31" value="&amp;lt;&amp;lt;include&amp;gt;&amp;gt;" style="text;html=1;align=center;verticalAlign=middle;resizable=0;points=[];autosize=1;strokeColor=none;fillColor=none;" vertex="1" parent="gg4HVY9TAaVVfvh8KX-W-110">
          <mxGeometry x="70" y="260" width="90" height="30" as="geometry" />
        </mxCell>
        <mxCell id="0nW2uWBSh4pnIqIu4Ily-33" value="&amp;lt;&amp;lt;include&amp;gt;&amp;gt;" style="text;html=1;align=center;verticalAlign=middle;resizable=0;points=[];autosize=1;strokeColor=none;fillColor=none;" vertex="1" parent="gg4HVY9TAaVVfvh8KX-W-110">
          <mxGeometry x="60" y="500" width="90" height="30" as="geometry" />
        </mxCell>
        <mxCell id="gg4HVY9TAaVVfvh8KX-W-56" value="Gledanje filma" style="ellipse;whiteSpace=wrap;html=1;" vertex="1" parent="gg4HVY9TAaVVfvh8KX-W-110">
          <mxGeometry x="10" y="670" width="120" height="80" as="geometry" />
        </mxCell>
        <mxCell id="gg4HVY9TAaVVfvh8KX-W-66" value="Ocjenjivanje filma" style="ellipse;whiteSpace=wrap;html=1;" vertex="1" parent="gg4HVY9TAaVVfvh8KX-W-110">
          <mxGeometry x="20" y="810" width="120" height="80" as="geometry" />
        </mxCell>
        <mxCell id="gg4HVY9TAaVVfvh8KX-W-70" value="Dodavanje filmova u My List" style="ellipse;whiteSpace=wrap;html=1;" vertex="1" parent="gg4HVY9TAaVVfvh8KX-W-110">
          <mxGeometry x="20" y="1080" width="120" height="80" as="geometry" />
        </mxCell>
        <mxCell id="gg4HVY9TAaVVfvh8KX-W-68" value="Komentari" style="ellipse;whiteSpace=wrap;html=1;" vertex="1" parent="gg4HVY9TAaVVfvh8KX-W-110">
          <mxGeometry x="20" y="940" width="120" height="80" as="geometry" />
        </mxCell>
        <mxCell id="gg4HVY9TAaVVfvh8KX-W-47" value="Po godini izlaska" style="ellipse;whiteSpace=wrap;html=1;" vertex="1" parent="gg4HVY9TAaVVfvh8KX-W-110">
          <mxGeometry x="330" y="530" width="120" height="70" as="geometry" />
        </mxCell>
        <mxCell id="gg4HVY9TAaVVfvh8KX-W-44" value="Po glumcima" style="ellipse;whiteSpace=wrap;html=1;" vertex="1" parent="gg4HVY9TAaVVfvh8KX-W-110">
          <mxGeometry x="310" y="265" width="120" height="60" as="geometry" />
        </mxCell>
        <mxCell id="0nW2uWBSh4pnIqIu4Ily-41" value="" style="endArrow=none;dashed=1;html=1;dashPattern=1 3;strokeWidth=2;rounded=0;exitX=0.5;exitY=1;exitDx=0;exitDy=0;" edge="1" parent="gg4HVY9TAaVVfvh8KX-W-110" source="gg4HVY9TAaVVfvh8KX-W-56">
          <mxGeometry width="50" height="50" relative="1" as="geometry">
            <mxPoint x="290" y="700" as="sourcePoint" />
            <mxPoint x="70" y="810" as="targetPoint" />
          </mxGeometry>
        </mxCell>
        <mxCell id="0nW2uWBSh4pnIqIu4Ily-42" value="" style="endArrow=none;dashed=1;html=1;dashPattern=1 3;strokeWidth=2;rounded=0;exitX=0.5;exitY=1;exitDx=0;exitDy=0;entryX=0.5;entryY=0;entryDx=0;entryDy=0;" edge="1" parent="gg4HVY9TAaVVfvh8KX-W-110" source="gg4HVY9TAaVVfvh8KX-W-66" target="gg4HVY9TAaVVfvh8KX-W-68">
          <mxGeometry width="50" height="50" relative="1" as="geometry">
            <mxPoint x="290" y="700" as="sourcePoint" />
            <mxPoint x="340" y="650" as="targetPoint" />
          </mxGeometry>
        </mxCell>
        <mxCell id="0nW2uWBSh4pnIqIu4Ily-43" value="" style="endArrow=none;dashed=1;html=1;dashPattern=1 3;strokeWidth=2;rounded=0;exitX=0.5;exitY=1;exitDx=0;exitDy=0;entryX=0.5;entryY=0;entryDx=0;entryDy=0;" edge="1" parent="gg4HVY9TAaVVfvh8KX-W-110" source="gg4HVY9TAaVVfvh8KX-W-68" target="gg4HVY9TAaVVfvh8KX-W-70">
          <mxGeometry width="50" height="50" relative="1" as="geometry">
            <mxPoint x="290" y="700" as="sourcePoint" />
            <mxPoint x="340" y="650" as="targetPoint" />
          </mxGeometry>
        </mxCell>
        <mxCell id="0nW2uWBSh4pnIqIu4Ily-44" value="&amp;lt;&amp;lt;include&amp;gt;&amp;gt;" style="text;html=1;align=center;verticalAlign=middle;resizable=0;points=[];autosize=1;strokeColor=none;fillColor=none;" vertex="1" parent="gg4HVY9TAaVVfvh8KX-W-110">
          <mxGeometry x="70" y="770" width="90" height="30" as="geometry" />
        </mxCell>
        <mxCell id="0nW2uWBSh4pnIqIu4Ily-46" value="&amp;lt;&amp;lt;include&amp;gt;&amp;gt;" style="text;html=1;align=center;verticalAlign=middle;resizable=0;points=[];autosize=1;strokeColor=none;fillColor=none;" vertex="1" parent="gg4HVY9TAaVVfvh8KX-W-110">
          <mxGeometry x="80" y="1040" width="90" height="30" as="geometry" />
        </mxCell>
        <mxCell id="gg4HVY9TAaVVfvh8KX-W-53" value="&amp;lt;&amp;lt;extend&amp;gt;&amp;gt;" style="text;html=1;align=center;verticalAlign=middle;resizable=0;points=[];autosize=1;strokeColor=none;fillColor=none;" vertex="1" parent="gg4HVY9TAaVVfvh8KX-W-110">
          <mxGeometry x="209" y="490" width="90" height="30" as="geometry" />
        </mxCell>
        <mxCell id="0nW2uWBSh4pnIqIu4Ily-45" value="&amp;lt;&amp;lt;include&amp;gt;&amp;gt;" style="text;html=1;align=center;verticalAlign=middle;resizable=0;points=[];autosize=1;strokeColor=none;fillColor=none;" vertex="1" parent="gg4HVY9TAaVVfvh8KX-W-110">
          <mxGeometry x="70" y="900" width="90" height="30" as="geometry" />
        </mxCell>
        <mxCell id="0nW2uWBSh4pnIqIu4Ily-47" value="Pogled na detalje filma" style="ellipse;whiteSpace=wrap;html=1;" vertex="1" parent="gg4HVY9TAaVVfvh8KX-W-110">
          <mxGeometry x="10" y="530" width="120" height="80" as="geometry" />
        </mxCell>
        <mxCell id="0nW2uWBSh4pnIqIu4Ily-50" value="&amp;lt;&amp;lt;include&amp;gt;&amp;gt;" style="text;html=1;align=center;verticalAlign=middle;resizable=0;points=[];autosize=1;strokeColor=none;fillColor=none;" vertex="1" parent="gg4HVY9TAaVVfvh8KX-W-110">
          <mxGeometry x="70" y="620" width="90" height="30" as="geometry" />
        </mxCell>
        <mxCell id="NVhraX7yO4u_frwCjtcj-2" value="" style="endArrow=none;dashed=1;html=1;dashPattern=1 3;strokeWidth=2;rounded=0;exitX=0.5;exitY=1;exitDx=0;exitDy=0;entryX=0.5;entryY=0;entryDx=0;entryDy=0;" edge="1" parent="gg4HVY9TAaVVfvh8KX-W-110" source="0nW2uWBSh4pnIqIu4Ily-47" target="gg4HVY9TAaVVfvh8KX-W-56">
          <mxGeometry width="50" height="50" relative="1" as="geometry">
            <mxPoint x="360" y="710" as="sourcePoint" />
            <mxPoint x="410" y="660" as="targetPoint" />
          </mxGeometry>
        </mxCell>
        <mxCell id="NVhraX7yO4u_frwCjtcj-3" value="Ključne riječi" style="ellipse;whiteSpace=wrap;html=1;" vertex="1" parent="gg4HVY9TAaVVfvh8KX-W-110">
          <mxGeometry x="330" y="430" width="120" height="70" as="geometry" />
        </mxCell>
        <mxCell id="NVhraX7yO4u_frwCjtcj-5" value="&amp;lt;&amp;lt;extend&amp;gt;&amp;gt;" style="text;html=1;align=center;verticalAlign=middle;resizable=0;points=[];autosize=1;strokeColor=none;fillColor=none;" vertex="1" parent="gg4HVY9TAaVVfvh8KX-W-110">
          <mxGeometry x="160" y="380" width="90" height="30" as="geometry" />
        </mxCell>
        <mxCell id="gg4HVY9TAaVVfvh8KX-W-9" value="Registracija" style="ellipse;whiteSpace=wrap;html=1;" vertex="1" parent="gg4HVY9TAaVVfvh8KX-W-110">
          <mxGeometry x="30" y="30" width="120" height="80" as="geometry" />
        </mxCell>
        <mxCell id="0nW2uWBSh4pnIqIu4Ily-28" value="" style="endArrow=none;dashed=1;html=1;dashPattern=1 3;strokeWidth=2;rounded=0;exitX=0.403;exitY=1.01;exitDx=0;exitDy=0;entryX=0.5;entryY=0;entryDx=0;entryDy=0;exitPerimeter=0;" edge="1" parent="gg4HVY9TAaVVfvh8KX-W-110" source="gg4HVY9TAaVVfvh8KX-W-9" target="gg4HVY9TAaVVfvh8KX-W-24">
          <mxGeometry width="50" height="50" relative="1" as="geometry">
            <mxPoint x="550" y="460" as="sourcePoint" />
            <mxPoint x="600" y="410" as="targetPoint" />
          </mxGeometry>
        </mxCell>
        <mxCell id="gg4HVY9TAaVVfvh8KX-W-45" value="Po nazivu filma" style="ellipse;whiteSpace=wrap;html=1;" vertex="1" parent="gg4HVY9TAaVVfvh8KX-W-110">
          <mxGeometry x="320" y="350" width="120" height="60" as="geometry" />
        </mxCell>
        <mxCell id="gg4HVY9TAaVVfvh8KX-W-52" value="&amp;lt;&amp;lt;extend&amp;gt;&amp;gt;" style="text;html=1;align=center;verticalAlign=middle;resizable=0;points=[];autosize=1;strokeColor=none;fillColor=none;" vertex="1" parent="gg4HVY9TAaVVfvh8KX-W-110">
          <mxGeometry x="180" y="430" width="90" height="30" as="geometry" />
        </mxCell>
        <mxCell id="gg4HVY9TAaVVfvh8KX-W-40" value="Pretraživanje filmova" style="ellipse;whiteSpace=wrap;html=1;" vertex="1" parent="gg4HVY9TAaVVfvh8KX-W-110">
          <mxGeometry x="20" y="390" width="120" height="80" as="geometry" />
        </mxCell>
        <mxCell id="gg4HVY9TAaVVfvh8KX-W-43" value="" style="endArrow=none;dashed=1;html=1;dashPattern=1 3;strokeWidth=2;rounded=0;exitX=0.917;exitY=0.125;exitDx=0;exitDy=0;exitPerimeter=0;entryX=0;entryY=0.5;entryDx=0;entryDy=0;" edge="1" parent="gg4HVY9TAaVVfvh8KX-W-110" source="gg4HVY9TAaVVfvh8KX-W-40" target="gg4HVY9TAaVVfvh8KX-W-44">
          <mxGeometry width="50" height="50" relative="1" as="geometry">
            <mxPoint x="240" y="370" as="sourcePoint" />
            <mxPoint x="180" y="380" as="targetPoint" />
          </mxGeometry>
        </mxCell>
        <mxCell id="gg4HVY9TAaVVfvh8KX-W-48" value="" style="endArrow=none;dashed=1;html=1;dashPattern=1 3;strokeWidth=2;rounded=0;exitX=1;exitY=0.375;exitDx=0;exitDy=0;exitPerimeter=0;entryX=0;entryY=0.5;entryDx=0;entryDy=0;" edge="1" parent="gg4HVY9TAaVVfvh8KX-W-110" source="gg4HVY9TAaVVfvh8KX-W-40" target="gg4HVY9TAaVVfvh8KX-W-45">
          <mxGeometry width="50" height="50" relative="1" as="geometry">
            <mxPoint x="240" y="470" as="sourcePoint" />
            <mxPoint x="290" y="420" as="targetPoint" />
          </mxGeometry>
        </mxCell>
        <mxCell id="gg4HVY9TAaVVfvh8KX-W-50" value="" style="endArrow=none;dashed=1;html=1;dashPattern=1 3;strokeWidth=2;rounded=0;exitX=0.575;exitY=1.038;exitDx=0;exitDy=0;exitPerimeter=0;entryX=0.067;entryY=0.3;entryDx=0;entryDy=0;entryPerimeter=0;" edge="1" parent="gg4HVY9TAaVVfvh8KX-W-110" source="gg4HVY9TAaVVfvh8KX-W-40" target="gg4HVY9TAaVVfvh8KX-W-47">
          <mxGeometry width="50" height="50" relative="1" as="geometry">
            <mxPoint x="240" y="470" as="sourcePoint" />
            <mxPoint x="290" y="420" as="targetPoint" />
          </mxGeometry>
        </mxCell>
        <mxCell id="NVhraX7yO4u_frwCjtcj-4" value="" style="endArrow=none;dashed=1;html=1;dashPattern=1 3;strokeWidth=2;rounded=0;exitX=1;exitY=1;exitDx=0;exitDy=0;entryX=0.027;entryY=0.306;entryDx=0;entryDy=0;entryPerimeter=0;" edge="1" parent="gg4HVY9TAaVVfvh8KX-W-110" source="gg4HVY9TAaVVfvh8KX-W-40" target="NVhraX7yO4u_frwCjtcj-3">
          <mxGeometry width="50" height="50" relative="1" as="geometry">
            <mxPoint x="360" y="580" as="sourcePoint" />
            <mxPoint x="410" y="530" as="targetPoint" />
            <Array as="points">
              <mxPoint x="210" y="460" />
            </Array>
          </mxGeometry>
        </mxCell>
        <mxCell id="0pRzKqyeK4C9D5gCEbVa-2" value="Editiranje profila" style="ellipse;whiteSpace=wrap;html=1;" vertex="1" parent="gg4HVY9TAaVVfvh8KX-W-110">
          <mxGeometry x="25" y="290" width="110" height="70" as="geometry" />
        </mxCell>
        <mxCell id="gg4HVY9TAaVVfvh8KX-W-23" value="" style="endArrow=none;html=1;rounded=0;exitX=0.75;exitY=0.1;exitDx=0;exitDy=0;exitPerimeter=0;" edge="1" parent="gg4HVY9TAaVVfvh8KX-W-110" source="gg4HVY9TAaVVfvh8KX-W-1">
          <mxGeometry width="50" height="50" relative="1" as="geometry">
            <mxPoint x="-103" y="437.49" as="sourcePoint" />
            <mxPoint x="30.001458015815842" y="240.00375047324292" as="targetPoint" />
          </mxGeometry>
        </mxCell>
        <mxCell id="0pRzKqyeK4C9D5gCEbVa-4" value="" style="endArrow=none;dashed=1;html=1;dashPattern=1 3;strokeWidth=2;rounded=0;entryX=0.5;entryY=1;entryDx=0;entryDy=0;exitX=0.5;exitY=0;exitDx=0;exitDy=0;" edge="1" parent="gg4HVY9TAaVVfvh8KX-W-110" source="0pRzKqyeK4C9D5gCEbVa-2" target="gg4HVY9TAaVVfvh8KX-W-24">
          <mxGeometry width="50" height="50" relative="1" as="geometry">
            <mxPoint x="360" y="480" as="sourcePoint" />
            <mxPoint x="410" y="430" as="targetPoint" />
          </mxGeometry>
        </mxCell>
        <mxCell id="0pRzKqyeK4C9D5gCEbVa-5" value="" style="endArrow=none;dashed=1;html=1;dashPattern=1 3;strokeWidth=2;rounded=0;entryX=0.5;entryY=1;entryDx=0;entryDy=0;exitX=0.5;exitY=0;exitDx=0;exitDy=0;" edge="1" parent="gg4HVY9TAaVVfvh8KX-W-110" source="gg4HVY9TAaVVfvh8KX-W-40" target="0pRzKqyeK4C9D5gCEbVa-2">
          <mxGeometry width="50" height="50" relative="1" as="geometry">
            <mxPoint x="360" y="480" as="sourcePoint" />
            <mxPoint x="410" y="430" as="targetPoint" />
          </mxGeometry>
        </mxCell>
        <mxCell id="0pRzKqyeK4C9D5gCEbVa-6" value="&amp;lt;&amp;lt;include&amp;gt;&amp;gt;" style="text;html=1;align=center;verticalAlign=middle;resizable=0;points=[];autosize=1;strokeColor=none;fillColor=none;" vertex="1" parent="gg4HVY9TAaVVfvh8KX-W-110">
          <mxGeometry x="70" y="360" width="90" height="30" as="geometry" />
        </mxCell>
        <mxCell id="0nW2uWBSh4pnIqIu4Ily-49" value="" style="endArrow=none;dashed=1;html=1;dashPattern=1 3;strokeWidth=2;rounded=0;entryX=0.5;entryY=0;entryDx=0;entryDy=0;" edge="1" parent="gg4HVY9TAaVVfvh8KX-W-110" target="0nW2uWBSh4pnIqIu4Ily-47">
          <mxGeometry width="50" height="50" relative="1" as="geometry">
            <mxPoint x="70" y="470" as="sourcePoint" />
            <mxPoint x="63" y="530" as="targetPoint" />
          </mxGeometry>
        </mxCell>
        <mxCell id="gg4HVY9TAaVVfvh8KX-W-29" value="Odabir pretplate" style="ellipse;whiteSpace=wrap;html=1;" vertex="1" parent="gg4HVY9TAaVVfvh8KX-W-110">
          <mxGeometry x="290" y="30" width="120" height="80" as="geometry" />
        </mxCell>
        <mxCell id="gg4HVY9TAaVVfvh8KX-W-27" value="" style="endArrow=none;dashed=1;html=1;dashPattern=1 3;strokeWidth=2;rounded=0;exitX=1;exitY=0.5;exitDx=0;exitDy=0;entryX=0;entryY=0.5;entryDx=0;entryDy=0;" edge="1" parent="gg4HVY9TAaVVfvh8KX-W-110" source="gg4HVY9TAaVVfvh8KX-W-9" target="gg4HVY9TAaVVfvh8KX-W-29">
          <mxGeometry width="50" height="50" relative="1" as="geometry">
            <mxPoint x="230" y="430" as="sourcePoint" />
            <mxPoint x="240" y="230" as="targetPoint" />
          </mxGeometry>
        </mxCell>
        <mxCell id="gg4HVY9TAaVVfvh8KX-W-59" value="Naplata pretplate" style="ellipse;whiteSpace=wrap;html=1;" vertex="1" parent="gg4HVY9TAaVVfvh8KX-W-110">
          <mxGeometry x="570" y="30" width="120" height="80" as="geometry" />
        </mxCell>
        <mxCell id="gg4HVY9TAaVVfvh8KX-W-57" value="" style="endArrow=none;dashed=1;html=1;dashPattern=1 3;strokeWidth=2;rounded=0;exitX=1;exitY=0.5;exitDx=0;exitDy=0;entryX=0;entryY=0.5;entryDx=0;entryDy=0;" edge="1" parent="gg4HVY9TAaVVfvh8KX-W-110" source="gg4HVY9TAaVVfvh8KX-W-29" target="gg4HVY9TAaVVfvh8KX-W-59">
          <mxGeometry width="50" height="50" relative="1" as="geometry">
            <mxPoint x="230" y="430" as="sourcePoint" />
            <mxPoint x="560" y="230" as="targetPoint" />
          </mxGeometry>
        </mxCell>
        <mxCell id="gg4HVY9TAaVVfvh8KX-W-58" value="&amp;lt;&amp;lt;include&amp;gt;&amp;gt;" style="text;html=1;align=center;verticalAlign=middle;resizable=0;points=[];autosize=1;strokeColor=none;fillColor=none;" vertex="1" parent="gg4HVY9TAaVVfvh8KX-W-110">
          <mxGeometry x="450" y="40" width="90" height="30" as="geometry" />
        </mxCell>
        <mxCell id="0pRzKqyeK4C9D5gCEbVa-7" value="&amp;lt;&amp;lt;include&amp;gt;&amp;gt;" style="text;html=1;align=center;verticalAlign=middle;resizable=0;points=[];autosize=1;strokeColor=none;fillColor=none;" vertex="1" parent="gg4HVY9TAaVVfvh8KX-W-110">
          <mxGeometry x="164" y="40" width="90" height="30" as="geometry" />
        </mxCell>
        <mxCell id="0nW2uWBSh4pnIqIu4Ily-14" value="Korisnik gost" style="shape=umlActor;verticalLabelPosition=bottom;verticalAlign=top;html=1;outlineConnect=0;" vertex="1" parent="1">
          <mxGeometry x="50" y="170" width="30" height="60" as="geometry" />
        </mxCell>
        <mxCell id="0nW2uWBSh4pnIqIu4Ily-16" value="" style="endArrow=none;html=1;rounded=0;exitX=1;exitY=0.5;exitDx=0;exitDy=0;entryX=0.5;entryY=0.5;entryDx=0;entryDy=0;entryPerimeter=0;" edge="1" parent="1" source="gg4HVY9TAaVVfvh8KX-W-77" target="gg4HVY9TAaVVfvh8KX-W-72">
          <mxGeometry width="50" height="50" relative="1" as="geometry">
            <mxPoint x="700" y="630" as="sourcePoint" />
            <mxPoint x="750" y="580" as="targetPoint" />
          </mxGeometry>
        </mxCell>
        <mxCell id="0nW2uWBSh4pnIqIu4Ily-18" value="" style="endArrow=none;html=1;rounded=0;exitX=1;exitY=0.5;exitDx=0;exitDy=0;entryX=0.5;entryY=0.5;entryDx=0;entryDy=0;entryPerimeter=0;" edge="1" parent="1" source="gg4HVY9TAaVVfvh8KX-W-83" target="gg4HVY9TAaVVfvh8KX-W-72">
          <mxGeometry width="50" height="50" relative="1" as="geometry">
            <mxPoint x="700" y="610" as="sourcePoint" />
            <mxPoint x="750" y="560" as="targetPoint" />
          </mxGeometry>
        </mxCell>
        <mxCell id="0nW2uWBSh4pnIqIu4Ily-21" value="" style="endArrow=none;html=1;rounded=0;exitX=1;exitY=0.5;exitDx=0;exitDy=0;entryX=0.5;entryY=0.5;entryDx=0;entryDy=0;entryPerimeter=0;" edge="1" parent="1" source="0nW2uWBSh4pnIqIu4Ily-17" target="gg4HVY9TAaVVfvh8KX-W-72">
          <mxGeometry width="50" height="50" relative="1" as="geometry">
            <mxPoint x="700" y="510" as="sourcePoint" />
            <mxPoint x="750" y="460" as="targetPoint" />
          </mxGeometry>
        </mxCell>
        <mxCell id="0nW2uWBSh4pnIqIu4Ily-22" value="" style="endArrow=none;html=1;rounded=0;exitX=0.908;exitY=0.238;exitDx=0;exitDy=0;exitPerimeter=0;" edge="1" parent="1" source="0nW2uWBSh4pnIqIu4Ily-19" target="gg4HVY9TAaVVfvh8KX-W-72">
          <mxGeometry width="50" height="50" relative="1" as="geometry">
            <mxPoint x="700" y="510" as="sourcePoint" />
            <mxPoint x="750" y="460" as="targetPoint" />
          </mxGeometry>
        </mxCell>
        <mxCell id="0nW2uWBSh4pnIqIu4Ily-24" value="Vlasnik&amp;nbsp;&lt;br&gt;" style="shape=umlActor;verticalLabelPosition=bottom;verticalAlign=top;html=1;outlineConnect=0;" vertex="1" parent="1">
          <mxGeometry x="1130" y="810" width="30" height="60" as="geometry" />
        </mxCell>
        <mxCell id="0nW2uWBSh4pnIqIu4Ily-25" value="" style="endArrow=none;html=1;rounded=0;exitX=0.983;exitY=0.375;exitDx=0;exitDy=0;exitPerimeter=0;entryX=0.5;entryY=0.5;entryDx=0;entryDy=0;entryPerimeter=0;" edge="1" parent="1" source="0nW2uWBSh4pnIqIu4Ily-23" target="0nW2uWBSh4pnIqIu4Ily-24">
          <mxGeometry width="50" height="50" relative="1" as="geometry">
            <mxPoint x="700" y="710" as="sourcePoint" />
            <mxPoint x="750" y="660" as="targetPoint" />
          </mxGeometry>
        </mxCell>
        <mxCell id="0nW2uWBSh4pnIqIu4Ily-26" value="" style="endArrow=none;html=1;rounded=0;exitX=0.5;exitY=0.5;exitDx=0;exitDy=0;exitPerimeter=0;entryX=0;entryY=0.5;entryDx=0;entryDy=0;" edge="1" parent="1" source="0nW2uWBSh4pnIqIu4Ily-14" target="gg4HVY9TAaVVfvh8KX-W-9">
          <mxGeometry width="50" height="50" relative="1" as="geometry">
            <mxPoint x="700" y="510" as="sourcePoint" />
            <mxPoint x="750" y="460" as="targetPoint" />
          </mxGeometry>
        </mxCell>
        <mxCell id="Uis74hfcW8gdMY8jaS-L-1" value="" style="endArrow=none;html=1;rounded=0;exitX=0.5;exitY=0.5;exitDx=0;exitDy=0;exitPerimeter=0;entryX=0.237;entryY=0.075;entryDx=0;entryDy=0;entryPerimeter=0;" edge="1" parent="1" source="gg4HVY9TAaVVfvh8KX-W-1" target="0nW2uWBSh4pnIqIu4Ily-47">
          <mxGeometry width="50" height="50" relative="1" as="geometry">
            <mxPoint x="510" y="630" as="sourcePoint" />
            <mxPoint x="181" y="540" as="targetPoint" />
          </mxGeometry>
        </mxCell>
        <mxCell id="Uis74hfcW8gdMY8jaS-L-3" value="" style="endArrow=none;html=1;rounded=0;exitX=0;exitY=1;exitDx=0;exitDy=0;exitPerimeter=0;entryX=0.053;entryY=0.268;entryDx=0;entryDy=0;entryPerimeter=0;" edge="1" parent="1" source="gg4HVY9TAaVVfvh8KX-W-1" target="gg4HVY9TAaVVfvh8KX-W-66">
          <mxGeometry width="50" height="50" relative="1" as="geometry">
            <mxPoint x="510" y="630" as="sourcePoint" />
            <mxPoint x="560" y="580" as="targetPoint" />
          </mxGeometry>
        </mxCell>
        <mxCell id="Uis74hfcW8gdMY8jaS-L-4" value="" style="endArrow=none;html=1;rounded=0;exitX=0;exitY=1;exitDx=0;exitDy=0;exitPerimeter=0;entryX=0.06;entryY=0.292;entryDx=0;entryDy=0;entryPerimeter=0;" edge="1" parent="1" source="gg4HVY9TAaVVfvh8KX-W-1" target="gg4HVY9TAaVVfvh8KX-W-68">
          <mxGeometry width="50" height="50" relative="1" as="geometry">
            <mxPoint x="510" y="730" as="sourcePoint" />
            <mxPoint x="170" y="980" as="targetPoint" />
          </mxGeometry>
        </mxCell>
        <mxCell id="Uis74hfcW8gdMY8jaS-L-5" value="" style="endArrow=none;html=1;rounded=0;entryX=0;entryY=0.352;entryDx=0;entryDy=0;entryPerimeter=0;" edge="1" parent="1" source="gg4HVY9TAaVVfvh8KX-W-1" target="gg4HVY9TAaVVfvh8KX-W-70">
          <mxGeometry width="50" height="50" relative="1" as="geometry">
            <mxPoint x="510" y="730" as="sourcePoint" />
            <mxPoint x="560" y="680" as="targetPoint" />
          </mxGeometry>
        </mxCell>
        <mxCell id="0pRzKqyeK4C9D5gCEbVa-3" value="" style="endArrow=none;html=1;rounded=0;exitX=1;exitY=0.3333333333333333;exitDx=0;exitDy=0;exitPerimeter=0;entryX=0;entryY=1;entryDx=0;entryDy=0;" edge="1" parent="1" source="gg4HVY9TAaVVfvh8KX-W-1" target="0pRzKqyeK4C9D5gCEbVa-2">
          <mxGeometry width="50" height="50" relative="1" as="geometry">
            <mxPoint x="510" y="430" as="sourcePoint" />
            <mxPoint x="560" y="380" as="targetPoint" />
          </mxGeometry>
        </mxCell>
      </root>
    </mxGraphModel>
  </diagram>
</mxfile>
